<svg width="30" height="30" viewBox="0 0 30 30" fill="none" xmlns="http://www.w3.org/2000/svg">
<path d="M15 27.5C19.8237 27.5 23.75 23.5737 23.75 18.75C23.75 13.9262 19.8237 10 15 10C10.175 10 6.25 13.9262 6.25 18.75C6.25 23.5737 10.175 27.5 15 27.5ZM15 12.5C18.4462 12.5 21.25 15.3037 21.25 18.75C21.25 22.1962 18.4462 25 15 25C11.5537 25 8.75 22.1962 8.75 18.75C8.75 15.3037 11.5537 12.5 15 12.5ZM13.75 2.5H8.75V9.3975C10.2458 8.39653 11.961 7.77094 13.75 7.57375V2.5ZM21.25 2.5H16.25V7.57375C18.039 7.77094 19.7541 8.39653 21.25 9.3975V2.5Z" fill="#699BF7"/>
<path d="M12.5237 19.7637L11.9387 23.1713L15 21.5625L18.0612 23.1713L17.4762 19.7637L19.9537 17.3487L16.5312 16.8512L15 13.75L13.4687 16.8512L10.0462 17.3487L12.5237 19.7637Z" fill="#699BF7"/>
</svg>
