<svg width="71" height="50" viewBox="0 0 71 50" fill="none" xmlns="http://www.w3.org/2000/svg">
<path d="M25.0809 42.8028C25.0809 42.1316 24.63 41.6841 23.9538 41.6841H4.34216C3.6659 41.6841 3.21506 42.1316 3.21506 42.8028C3.21506 43.474 3.6659 43.9214 4.34216 43.9214H23.9538C24.63 43.9214 25.0809 43.3621 25.0809 42.8028Z" fill="#FAFAFA"/>
<path d="M8.85055 47.2773H6.59634C5.92008 47.2773 5.46924 47.7248 5.46924 48.396C5.46924 49.0672 5.92008 49.5147 6.59634 49.5147H8.85055C9.52681 49.5147 9.97765 49.0672 9.97765 48.396C9.97765 47.7248 9.52681 47.2773 8.85055 47.2773Z" fill="#FAFAFA"/>
<path d="M14.148 37.2092C14.148 36.538 13.6972 36.0906 13.0209 36.0906H2.08798C1.41172 36.0906 0.960876 36.538 0.960876 37.2092C0.960876 37.8805 1.41172 38.3279 2.08798 38.3279H13.0209C13.6972 38.3279 14.148 37.7686 14.148 37.2092Z" fill="#FAFAFA"/>
<path d="M70.165 39.111C69.8269 38.4398 69.1507 37.8805 68.4744 37.5449L59.9084 34.3007L56.4144 33.0702C55.4 32.6227 54.4983 31.9515 53.9347 31.0566L51.0043 26.2463C51.5678 26.1344 51.906 25.6869 51.906 25.1276C51.906 24.4564 51.4551 24.0089 50.7789 24.0089H49.6517L48.2992 21.7716C48.8628 21.6597 49.2009 21.2123 49.2009 20.6529C49.2009 19.9817 48.7501 19.5342 48.0738 19.5342H46.9467L45.8196 17.7444C46.2704 17.6325 46.6086 17.185 46.6086 16.7376C46.6086 16.0664 46.1577 15.6189 45.4815 15.6189H44.4671L43.0018 13.2697C43.0018 13.2697 43.0018 13.1578 42.8891 13.1578C41.5366 11.5917 39.7332 10.8086 37.8172 11.0323C36.1265 11.2561 34.774 12.2629 34.2104 13.4934C34.0977 13.829 34.0977 14.1646 34.3231 14.5002L43.6781 30.3854C43.7908 30.6091 44.0162 30.8328 44.2416 30.8328L55.7381 35.1956H55.8508L59.2321 36.4262L67.6854 39.6703C67.9108 39.7822 68.1363 39.8941 68.249 40.2297C68.6998 41.1246 68.6998 42.0195 68.1363 42.9145H49.7645C48.6374 42.9145 47.5103 42.5789 46.6086 41.9077L15.1624 18.7512C15.1624 18.7512 15.6132 18.5274 16.1768 17.7444C16.7403 16.9613 16.9657 15.9545 16.9657 14.9477L15.9513 5.55086L17.3039 3.42538C17.642 2.97791 18.3182 2.86605 18.7691 3.20165C19.1072 3.53725 20.4597 4.65592 23.7283 9.91368C25.419 12.3748 28.1241 14.1646 31.1672 14.6121C31.7308 14.724 32.4071 14.2765 32.5198 13.7172C32.6325 13.1578 32.1816 12.4866 31.6181 12.3748C29.2512 11.9273 26.997 10.5849 25.6444 8.57127C21.6996 2.53045 20.5725 1.63551 20.1216 1.29991C18.6564 0.293103 16.6276 0.628705 15.5005 2.08298L8.62515 12.9341C8.17431 13.6053 8.0616 14.3884 8.17431 15.1714C7.49805 15.3952 6.82179 15.7308 6.48366 16.402L4.68029 19.1986C3.6659 20.6529 4.11674 22.6665 5.58197 23.6733C6.59637 24.4564 8.73786 25.7988 11.8938 27.8124C12.1192 27.9243 12.3446 28.0361 12.4573 28.0361C12.7954 28.0361 13.1336 27.8124 13.359 27.4768C13.6971 26.9175 13.5844 26.2463 13.0209 25.9107C9.97768 23.8971 7.83618 22.5547 6.82179 21.7716C6.37095 21.436 6.25823 20.8767 6.59637 20.3173L8.28702 17.7444C8.62515 17.2969 9.30142 17.185 9.75226 17.5206L45.1433 43.6975C46.4959 44.7043 48.0738 45.1518 49.6517 45.1518H65.2058C62.8389 46.2705 59.5703 47.2773 56.7525 47.2773H52.8076H49.539C47.623 47.2773 45.7069 46.718 44.1289 45.7112C37.5917 41.5721 25.419 33.8532 16.5149 28.148C15.9513 27.8124 15.2751 27.9243 14.9369 28.4836C14.5988 29.043 14.7115 29.7142 15.2751 30.0498C23.9538 35.6431 35.7884 43.1382 42.4383 47.3892H13.359C12.6827 47.3892 12.2319 47.8366 12.2319 48.5078C12.2319 49.179 12.6827 49.6265 13.359 49.6265H49.539H52.8076H56.6398C61.2609 49.6265 67.9108 47.1654 69.6015 44.8162C71.0667 42.8026 71.1794 40.9009 70.165 39.111ZM45.256 29.043L36.4646 14.1646C36.8028 13.829 37.3663 13.4934 38.0426 13.3816C38.7188 13.2697 39.9587 13.3816 41.0858 14.6121L41.762 15.7308H40.7476C40.0714 15.7308 39.6205 16.1782 39.6205 16.8494C39.6205 17.5206 40.0714 17.9681 40.7476 17.9681H43.1145L44.2416 19.758H43.34C42.6637 19.758 42.2129 20.2055 42.2129 20.8767C42.2129 21.5479 42.6637 21.9953 43.34 21.9953H45.5942L46.9467 24.1208H46.045C45.3687 24.1208 44.9179 24.5683 44.9179 25.2395C44.9179 25.9107 45.3687 26.3581 46.045 26.3581H48.2992L51.4551 31.2803L45.256 29.043ZM10.5412 14.1646L14.0353 8.68314L14.7115 15.1714C14.7115 15.6189 14.5988 16.0664 14.3734 16.402C14.148 16.7376 13.6971 17.6325 12.6827 16.8494C12.6827 16.8494 12.1192 16.5138 11.1048 15.7308C10.4285 15.1714 10.3158 14.6121 10.5412 14.1646Z" fill="#FAFAFA"/>
</svg>
