<svg width="159" height="75" viewBox="0 0 159 75" fill="none" xmlns="http://www.w3.org/2000/svg">
<path d="M45.3267 8.53181C44.7197 7.61302 43.833 7.58664 42.8225 7.55657C42.708 7.55316 42.5919 7.54971 42.4745 7.5449C42.3851 7.54083 42.2864 7.5424 42.1832 7.54404C41.7734 7.55054 41.2941 7.55815 41.0526 7.2178C40.7726 6.82321 40.7991 6.06065 40.8211 5.43113C40.828 5.23221 40.8345 5.04644 40.8307 4.88991C40.7913 3.42752 40.7092 1.87409 40.1381 1.35478C39.7074 0.965156 38.419 1.01913 37.2308 1.06891C36.8456 1.08505 36.471 1.10075 36.1395 1.10075H10.848C10.3388 1.10075 9.80501 1.05976 9.28054 1.01949C8.25858 0.941025 7.27198 0.865273 6.57137 1.10075C5.55459 1.44416 5.48574 3.24872 5.42091 4.94798L5.41742 5.03941C5.36299 6.44221 5.01127 7.52467 3.8456 7.41563C2.48983 7.29087 1.14077 7.25152 0.527781 8.46437C-0.196168 9.89937 -0.0468613 11.4015 0.220569 14.092C0.25877 14.4764 0.299382 14.885 0.340202 15.321H45.7178C45.7437 15.0023 45.7713 14.6876 45.7985 14.3781C46.011 11.9574 46.1961 9.84831 45.3267 8.53181Z" fill="#8047F8"/>
<path fill-rule="evenodd" clip-rule="evenodd" d="M3.87407 17.9895C4.58278 27.4704 5.28375 36.9621 5.98474 46.454L5.98516 46.4598C6.36577 51.6135 6.74639 56.7673 7.12825 61.9195H8.57613C8.67479 62.7259 8.78769 63.7216 8.90671 64.7713C9.14832 66.9021 9.41524 69.2562 9.63964 70.7028H9.79979C11.2746 70.1694 21.47 65.8619 21.4746 48.7127C21.4727 48.6638 21.4744 48.6149 21.4795 48.5664H18.9606C18.8387 48.5653 18.7205 48.525 18.6243 48.4519C18.528 48.3787 18.459 48.2767 18.4279 48.1615C18.1824 47.5621 17.9845 46.9453 17.8359 46.3163C16.3541 47.1435 15.1773 48.4066 14.4734 49.9257C13.8052 48.3699 13.7177 46.6342 14.2263 45.0218C14.7349 43.4094 15.8071 42.0229 17.2557 41.1046C17.2744 36.1004 19.1699 31.2765 22.5836 27.546L22.6369 27.4998C22.7361 27.415 22.8631 27.3678 22.9948 27.3667C23.071 27.3674 23.1463 27.3835 23.2158 27.414C23.2862 27.4449 23.3491 27.4899 23.4005 27.546C26.8541 31.2816 28.7396 36.1519 28.681 41.1855C30.1567 42.0783 31.2508 43.4638 31.7603 45.0849C32.2698 46.7061 32.1601 48.4528 31.4515 50.0009C30.7514 48.4794 29.5737 47.2152 28.089 46.3915C27.9984 47.0011 27.8314 47.5975 27.5918 48.1673C27.5089 48.4102 27.3431 48.5664 27.1774 48.5664H24.4912C24.4954 48.5955 24.4984 48.6247 24.5001 48.654L24.5012 48.6608V48.6749C24.5021 48.7002 24.5022 48.7255 24.5013 48.7508C24.538 66.3923 35.378 70.3965 36.2917 70.7028H36.6042C36.6841 69.3133 36.9438 67.3959 37.197 65.5267C37.3715 64.2386 37.5429 62.9733 37.6502 61.9195H39.1148C39.5836 55.4298 40.0657 48.9583 40.5479 42.4867L40.5482 42.4832L40.5483 42.4813C41.1651 34.2034 41.7818 25.9252 42.3707 17.6085H3.96786C3.85732 17.6298 3.86486 17.8086 3.87407 17.9895ZM22.9948 27.3667L22.9921 27.3667H22.998L22.9948 27.3667Z" fill="#8047F8"/>
<path d="M58.5991 11.4841C58.5991 9.14373 59.4148 7.32996 61.0462 6.04276C62.7073 4.72632 65.1989 4.0681 68.521 4.0681C70.716 4.0681 72.5847 4.27288 74.1271 4.68244V10.7381C72.466 10.2408 70.8198 9.9921 69.1884 9.9921C67.5867 9.9921 66.5485 10.1823 66.0739 10.5626C65.5993 10.9136 65.362 11.4402 65.362 12.1423V26.8865C65.362 28.2907 66.4743 28.9928 68.699 28.9928C70.9533 28.9928 72.8071 28.7734 74.2606 28.3346V34.2586C72.6588 34.6974 70.716 34.9168 68.432 34.9168C65.1099 34.9168 62.6331 34.2732 61.0017 32.986C59.4 31.6988 58.5991 29.8851 58.5991 27.5447V11.4841Z" fill="#FAFAFA"/>
<path d="M87.2573 15.6528C87.2573 14.5412 86.6344 13.9853 85.3886 13.9853C84.1428 13.9853 83.5199 14.5412 83.5199 15.6528V27.8519C83.5199 28.9636 84.1428 29.5194 85.3886 29.5194C86.6344 29.5194 87.2573 28.9636 87.2573 27.8519V15.6528ZM76.935 15.4334C76.935 13.2101 77.632 11.4841 79.0261 10.2554C80.4499 8.99745 82.5707 8.36849 85.3886 8.36849C88.2065 8.36849 90.3125 8.99745 91.7066 10.2554C93.1303 11.4841 93.8422 13.2101 93.8422 15.4334V28.0713C93.8422 30.2946 93.1303 32.0353 91.7066 33.2932C90.3125 34.5219 88.2065 35.1362 85.3886 35.1362C82.5707 35.1362 80.4499 34.5219 79.0261 33.2932C77.632 32.0353 76.935 30.2946 76.935 28.0713V15.4334Z" fill="#FAFAFA"/>
<path d="M98.1667 8.50013C98.1667 3.55615 100.807 1.08415 106.086 1.08415C106.769 1.08415 107.584 1.15729 108.533 1.30356V6.39382C108.059 6.33531 107.614 6.30606 107.199 6.30606C105.686 6.30606 104.93 7.00816 104.93 8.41237V8.8073H108.533V13.9853H104.93V34.6974H98.1667V24.3414V13.9853H95.6306V8.8073H98.1667V8.50013Z" fill="#FAFAFA"/>
<path d="M111.289 8.50013C111.289 3.55615 113.928 1.08415 119.208 1.08415C119.89 1.08415 120.706 1.15729 121.655 1.30356V6.39382C121.181 6.33531 120.736 6.30606 120.321 6.30606C118.808 6.30606 118.051 7.00816 118.051 8.41237V8.8073H121.655V13.9853H118.051V34.6974H111.289V13.9853H108.752V8.8073H111.289V8.50013Z" fill="#FAFAFA"/>
<path d="M123.209 27.3253V15.4334C123.209 13.2101 123.906 11.4841 125.3 10.2554C126.694 8.99745 128.8 8.36849 131.618 8.36849C137.046 8.36849 139.76 10.7235 139.76 15.4334V24.3414H129.661V26.7987C129.661 27.6764 129.898 28.3053 130.372 28.6856C130.877 29.0367 131.959 29.2122 133.62 29.2122C135.311 29.2122 137.15 28.9197 139.137 28.3346V34.1269C137.061 34.6828 134.837 34.9607 132.464 34.9607C126.294 34.9607 123.209 32.4156 123.209 27.3253ZM129.661 19.295H133.576V15.5212C133.576 14.4095 132.923 13.8537 131.618 13.8537C130.313 13.8537 129.661 14.4095 129.661 15.5212V19.295Z" fill="#FAFAFA"/>
<path d="M142.414 27.3253V15.4334C142.414 13.2101 143.111 11.4841 144.505 10.2554C145.899 8.99745 148.005 8.36849 150.823 8.36849C156.251 8.36849 158.965 10.7235 158.965 15.4334V24.3414H148.865V26.7987C148.865 27.6764 149.103 28.3053 149.577 28.6856C150.082 29.0367 151.164 29.2122 152.825 29.2122C154.516 29.2122 156.355 28.9197 158.342 28.3346V34.1269C156.266 34.6828 154.041 34.9607 151.668 34.9607C145.499 34.9607 142.414 32.4156 142.414 27.3253ZM148.865 19.295H152.781V15.5212C152.781 14.4095 152.128 13.8537 150.823 13.8537C149.518 13.8537 148.865 14.4095 148.865 15.5212V19.295Z" fill="#FAFAFA"/>
<path d="M69.3082 50.8548C69.3082 48.6945 68.1521 47.6143 65.84 47.6143H62.1528V67.3093H65.84C68.1521 67.3093 69.3082 66.2051 69.3082 63.9968V50.8548ZM59.5609 45.382H65.9861C67.9331 45.382 69.4055 45.8741 70.4034 46.8582C71.4012 47.8424 71.9002 49.1626 71.9002 50.8188V64.0688C71.9002 65.773 71.4134 67.1172 70.4399 68.1014C69.4664 69.0855 68.0061 69.5776 66.0591 69.5776H59.5609V45.382Z" fill="#FAFAFA"/>
<path d="M76.1658 64.3568V54.3473C76.1658 52.6431 76.6525 51.2869 77.626 50.2787C78.6239 49.2466 80.1207 48.7305 82.1164 48.7305C84.1121 48.7305 85.5845 49.2466 86.5337 50.2787C87.5072 51.2869 87.994 52.6431 87.994 54.3473V60.6123H78.7212V64.2488C78.7212 65.329 79.062 66.1331 79.7434 66.6612C80.4249 67.1892 81.4836 67.4533 82.9195 67.4533C84.3555 67.4533 85.8401 67.2372 87.3734 66.8052V69.1815C86.1565 69.5656 84.7084 69.7576 83.029 69.7576C78.4535 69.7576 76.1658 67.9574 76.1658 64.3568ZM78.7212 58.4879H85.5115V54.3473C85.5115 52.091 84.3798 50.9628 82.1164 50.9628C79.853 50.9628 78.7212 52.091 78.7212 54.3473V58.4879Z" fill="#FAFAFA"/>
<path d="M92.4313 43.6537H95.0232V69.5776H92.4313V43.6537Z" fill="#FAFAFA"/>
<path d="M101.338 46.7862C100.292 46.7862 99.7686 46.2341 99.7686 45.13C99.7686 44.0258 100.292 43.4737 101.338 43.4737C102.409 43.4737 102.945 44.0258 102.945 45.13C102.945 46.2341 102.409 46.7862 101.338 46.7862ZM100.061 49.2346H102.653V69.5776H100.061V49.2346Z" fill="#FAFAFA"/>
<path d="M116.014 49.0905H118.642L116.342 59.3341L114.042 69.5776H110.391L105.792 49.0905H108.457L110.464 58.4879L112.253 67.7773C112.983 63.7927 114.237 57.5638 116.014 49.0905Z" fill="#FAFAFA"/>
<path d="M121.407 64.3568V54.3473C121.407 52.6431 121.894 51.2869 122.867 50.2787C123.865 49.2466 125.362 48.7305 127.358 48.7305C129.353 48.7305 130.826 49.2466 131.775 50.2787C132.749 51.2869 133.235 52.6431 133.235 54.3473V60.6123H123.963V64.2488C123.963 65.329 124.303 66.1331 124.985 66.6612C125.666 67.1892 126.725 67.4533 128.161 67.4533C129.597 67.4533 131.081 67.2372 132.615 66.8052V69.1815C131.398 69.5656 129.95 69.7576 128.27 69.7576C123.695 69.7576 121.407 67.9574 121.407 64.3568ZM123.963 58.4879H130.753V54.3473C130.753 52.091 129.621 50.9628 127.358 50.9628C125.094 50.9628 123.963 52.091 123.963 54.3473V58.4879Z" fill="#FAFAFA"/>
<path d="M144.39 48.9825H145.303V51.4309H144.061C143.185 51.4309 142.394 51.6589 141.688 52.115C141.469 52.259 140.995 52.5831 140.265 53.0871V69.5776H137.673V49.0905H140.155V50.6388C140.228 50.5908 140.411 50.4587 140.703 50.2427C141.019 50.0267 141.202 49.9067 141.25 49.8827C141.323 49.8347 141.481 49.7386 141.725 49.5946C141.993 49.4506 142.187 49.3666 142.309 49.3426C142.455 49.2946 142.65 49.2346 142.893 49.1626C143.258 49.0425 143.757 48.9825 144.39 48.9825Z" fill="#FAFAFA"/>
<path d="M156.408 49.0905H159L153.305 74.9424H150.822L151.954 69.5776H150.676L146.15 49.0905H148.778L150.969 59.2801L152.575 67.7773C153.062 64.9449 153.597 62.1125 154.181 59.2801L156.408 49.0905Z" fill="#FAFAFA"/>
</svg>
