<svg width="130" height="130" viewBox="0 0 130 130" fill="none" xmlns="http://www.w3.org/2000/svg">
<g clip-path="url(#clip0_14_161)">
<path d="M27.5167 0H33.3775V5.79042H38.74V0H44.6008V17.5283H38.74V11.6621H33.3775V17.5283H27.5221V0H27.5167ZM52.3033 5.81208H47.1467V0H63.3262V5.81208H58.1642V17.5283H52.3033V5.81208ZM65.8937 0H72.0037L75.7629 6.15875L79.5167 0H85.6267V17.5283H79.7929V8.84L75.7629 15.0746H75.66L71.6246 8.84542V17.5283H65.8937V0ZM88.5408 0H94.4071V11.7379H102.64V17.5337H88.5408V0Z" fill="#C5C5C5"/>
<path fill-rule="evenodd" clip-rule="evenodd" d="M27.3325 119.557L16.25 25.5503H113.75L102.662 119.546L64.9458 130L27.3325 119.557ZM49.7412 68.0982L48.6904 56.2899H92.8092L93.8383 44.7632H36.0967L39.2058 79.6303H79.1646L77.8267 94.5803L64.9675 98.0578H64.9567L52.1192 94.5911L51.2958 85.399H39.715L41.3292 103.502L64.9458 110.056L88.6004 103.502L91.4821 71.1965L91.7637 68.1036H49.7412V68.0982Z" fill="#C5C5C5"/>
</g>
<defs>
<clipPath id="clip0_14_161">
<rect width="130" height="130" fill="white"/>
</clipPath>
</defs>
</svg>
