<svg width="130" height="130" viewBox="0 0 130 130" fill="none" xmlns="http://www.w3.org/2000/svg">
<g clip-path="url(#clip0_14_190)">
<path d="M130 63.3155C130 54.703 119.215 46.5401 102.678 41.4809C106.497 24.6297 104.802 11.218 97.3267 6.92258C95.5154 5.90815 93.4655 5.39753 91.39 5.44383V11.348C92.6087 11.348 93.5892 11.5917 94.4125 12.0413C98.0146 14.1105 99.58 21.9755 98.3613 32.0992C98.0687 34.5909 97.5921 37.2126 97.0071 39.8884C91.4693 38.5539 85.8488 37.5895 80.1829 37.0013C76.8075 32.3446 73.125 27.9183 69.16 23.7522C77.7996 15.7247 85.9083 11.3263 91.4225 11.3263V5.41675C84.1317 5.41675 74.5929 10.6113 64.9458 19.6192C55.3042 10.6709 45.76 5.52508 38.4746 5.52508V11.4292C43.9617 11.4292 52.0975 15.8059 60.7371 23.7792C57.0267 27.6792 53.3162 32.0992 49.79 37.0013C44.1124 37.5829 38.4819 38.5566 32.9387 39.9155C32.3529 37.3794 31.892 34.816 31.5575 32.2347C30.3117 22.1055 31.85 14.2405 35.4304 12.1497C36.2212 11.673 37.2558 11.4563 38.4746 11.4563V5.55216C36.2537 5.55216 34.2333 6.02883 32.4892 7.03091C25.0413 11.3263 23.3729 24.7055 27.2133 41.508C10.7304 46.5997 0 54.7301 0 63.3155C0 71.928 10.7846 80.0909 27.3217 85.1447C23.5029 102.001 25.1983 115.413 32.6733 119.703C34.3958 120.711 36.4108 121.187 38.6317 121.187C45.9225 121.187 55.4613 115.993 65.1083 106.985C74.75 115.938 84.2887 121.079 91.5796 121.079C93.671 121.123 95.7365 120.611 97.565 119.595C105.013 115.305 106.681 101.925 102.841 85.123C119.27 80.0638 130 71.9009 130 63.3155ZM95.4958 45.6409C94.4666 49.1826 93.2736 52.6747 91.9208 56.1059C89.7063 51.7983 87.2747 47.6059 84.6354 43.5447C88.4 44.1026 92.0292 44.7905 95.5013 45.6409H95.4958ZM83.3625 73.8617C81.3785 77.3255 79.2478 80.7032 76.9762 83.9855C69.0259 84.6862 61.0298 84.6953 53.0779 84.0126C48.5168 77.4973 44.5279 70.5996 41.1558 63.3967C44.5227 56.1769 48.4947 49.255 53.0292 42.7051C60.9775 42.0029 68.9718 41.992 76.9221 42.6726C79.1212 45.8251 81.2717 49.1942 83.3354 52.7476C85.3504 56.2142 87.1812 59.7351 88.8496 63.2884C87.1627 66.8848 85.3322 70.4121 83.3625 73.8617ZM91.9208 70.4167C93.3508 73.9647 94.575 77.518 95.5771 80.963C92.1104 81.8134 88.4487 82.5284 84.6625 83.0809C87.2909 78.9828 89.7133 74.7561 91.9208 70.4167ZM65.0542 98.6917C62.5896 96.1459 60.125 93.313 57.6875 90.2092C60.0708 90.3176 62.5083 90.3988 64.9729 90.3988C67.4646 90.3988 69.9292 90.3447 72.3396 90.2092C69.9562 93.313 67.4917 96.1459 65.0542 98.6917ZM45.3375 83.0809C41.6853 82.5517 38.0595 81.854 34.4717 80.9901C35.4521 77.5722 36.6708 74.0459 38.0467 70.5251C39.1354 72.6376 40.2783 74.7609 41.5242 76.8842C42.77 79.0022 44.0375 81.0713 45.3375 83.0809ZM64.9187 27.9392C67.3833 30.4851 69.8479 33.318 72.2854 36.4217C69.9021 36.3134 67.4646 36.2322 65 36.2322C62.5083 36.2322 60.0438 36.2863 57.6333 36.4217C60.0167 33.318 62.4812 30.4851 64.9187 27.9392ZM45.3104 43.5501C42.6826 47.6393 40.2602 51.8569 38.0521 56.1872C36.6612 52.7338 35.4409 49.2141 34.3958 45.6409C37.8625 44.8176 41.5242 44.1026 45.3104 43.5501ZM21.3308 76.7217C11.9492 72.7242 5.8825 67.4755 5.8825 63.3155C5.8825 59.1555 11.9492 53.8797 21.3308 49.9092C23.6058 48.9288 26.0975 48.0513 28.6704 47.2334C30.1817 52.4226 32.1696 57.8284 34.6287 63.3697C32.307 68.5815 30.3434 73.9456 28.7517 79.4247C26.2354 78.6455 23.7588 77.7435 21.3308 76.7217ZM35.5875 114.584C31.9854 112.526 30.42 104.65 31.6388 94.5317C31.9312 92.0401 32.4079 89.413 32.9929 86.7372C38.1821 88.0101 43.8533 88.9905 49.8171 89.6297C53.1926 94.2863 56.8751 98.7125 60.84 102.879C52.2004 110.906 44.0917 115.305 38.5775 115.305C37.5372 115.316 36.5101 115.07 35.5875 114.59V114.584ZM98.4425 94.3963C99.6883 104.52 98.15 112.39 94.5696 114.481C93.7787 114.958 92.7442 115.169 91.5254 115.169C86.0383 115.169 77.9025 110.798 69.2629 102.819C73.2113 98.6704 76.869 94.2544 80.21 89.6026C85.8876 89.021 91.5181 88.0473 97.0612 86.6884C97.6733 89.3642 98.1446 91.9317 98.4425 94.3963ZM108.642 76.7217C106.367 77.7022 103.875 78.5797 101.302 79.3976C99.6828 73.8905 97.6921 68.4995 95.3442 63.2613C97.7817 57.7526 99.7371 52.3738 101.221 47.2063C103.746 47.988 106.231 48.89 108.669 49.9092C118.051 53.9067 124.117 59.1555 124.117 63.3155C124.09 67.4755 118.024 72.7513 108.642 76.7217Z" fill="#C5C5C5"/>
<path d="M64.9729 75.4272C68.1851 75.4272 71.2658 74.1511 73.5371 71.8798C75.8085 69.6084 77.0846 66.5277 77.0846 63.3155C77.0846 60.1033 75.8085 57.0227 73.5371 54.7513C71.2658 52.4799 68.1851 51.2039 64.9729 51.2039C61.7607 51.2039 58.68 52.4799 56.4087 54.7513C54.1373 57.0227 52.8612 60.1033 52.8612 63.3155C52.8612 66.5277 54.1373 69.6084 56.4087 71.8798C58.68 74.1511 61.7607 75.4272 64.9729 75.4272Z" fill="#C5C5C5"/>
</g>
<defs>
<clipPath id="clip0_14_190">
<rect width="130" height="130" fill="white"/>
</clipPath>
</defs>
</svg>
