<svg width="130" height="130" viewBox="0 0 130 130" fill="none" xmlns="http://www.w3.org/2000/svg">
<g clip-path="url(#clip0_14_183)">
<path d="M40.6358 0H54.6V5.83917H46.475V11.6783H54.6V17.5175H40.6358V0ZM57.3896 0H71.3592V5.08083H63.2342V6.09375H71.3592V17.7721H57.3896V12.4421H65.5146V11.4237H57.3896V0ZM74.1542 0H88.1129V5.08083H79.9879V6.09375H88.1129V17.7721H74.1542V12.4421H82.2792V11.4237H74.1542V0Z" fill="#C5C5C5"/>
<path fill-rule="evenodd" clip-rule="evenodd" d="M64.9512 130L27.3379 119.557L16.25 25.5505H113.75L102.668 119.546L64.9512 130ZM38.1712 68.1039L39.2058 79.6305H79.1646L77.8267 94.5805L64.9675 98.058H64.9567L52.1192 94.5914L51.2958 85.3993H39.7204L41.3346 103.502L64.9512 110.056L88.6058 103.502L91.4875 71.1968L91.7692 68.1039L93.8492 44.7635H36.0967L37.1475 56.2955H81.2175L80.1667 68.1039H38.1712Z" fill="#C5C5C5"/>
</g>
<defs>
<clipPath id="clip0_14_183">
<rect width="130" height="130" fill="white"/>
</clipPath>
</defs>
</svg>
