<svg width="130" height="130" viewBox="0 0 130 130" fill="none" xmlns="http://www.w3.org/2000/svg">
<g clip-path="url(#clip0_15_217)">
<path d="M127.546 59.207L70.785 2.45383C70.0078 1.67629 69.0851 1.05948 68.0695 0.63865C67.0538 0.217822 65.9653 0.0012207 64.8659 0.0012207C63.7666 0.0012207 62.678 0.217822 61.6624 0.63865C60.6468 1.05948 59.724 1.67629 58.9469 2.45383L47.1656 14.2351L62.1156 29.1851C63.8788 28.5831 65.7757 28.4889 67.5898 28.9133C69.4039 29.3377 71.0622 30.2635 72.3753 31.5851C73.6885 32.9068 74.6036 34.571 75.0163 36.3878C75.4291 38.2046 75.3227 40.1008 74.7094 41.8601L89.115 56.2738C91.2463 55.5234 93.5696 55.5211 95.7023 56.2674C97.8351 57.0136 99.6501 58.4639 100.849 60.3794C102.047 62.2949 102.558 64.5614 102.296 66.8058C102.034 69.0501 101.016 71.1385 99.4094 72.727C97.7826 74.3637 95.6381 75.3848 93.342 75.616C91.046 75.8472 88.7409 75.274 86.8206 73.9944C84.9002 72.7148 83.4837 70.8082 82.813 68.6001C82.1422 66.3921 82.2589 64.0197 83.1431 61.8882L69.7125 48.4495V83.8176C71.754 84.8281 73.3874 86.5078 74.3406 88.5766C75.2938 90.6455 75.5091 92.9786 74.9507 95.1869C74.3923 97.3953 73.0939 99.3456 71.2719 100.713C69.4499 102.08 67.2143 102.781 64.9379 102.7C62.6615 102.619 60.4817 101.76 58.7618 100.266C57.042 98.7723 55.886 96.7344 55.4865 94.4918C55.0871 92.2492 55.4683 89.9374 56.5667 87.9419C57.665 85.9463 59.4141 84.3874 61.5225 83.5251V47.832C60.3061 47.3335 59.2004 46.5993 58.2691 45.6715C57.3378 44.7437 56.5993 43.6408 56.0963 42.4263C55.5933 41.2117 55.3356 39.9097 55.3382 38.5951C55.3408 37.2806 55.6035 35.9795 56.1112 34.767L41.3806 20.0282L2.46186 58.947C1.68431 59.7241 1.0675 60.6469 0.646676 61.6625C0.225848 62.6781 0.00924683 63.7667 0.00924683 64.866C0.00924683 65.9654 0.225848 67.0539 0.646676 68.0696C1.0675 69.0852 1.68431 70.0079 2.46186 70.7851L59.2231 127.546C60.0003 128.324 60.923 128.941 61.9386 129.362C62.9542 129.782 64.0428 129.999 65.1422 129.999C66.2415 129.999 67.3301 129.782 68.3457 129.362C69.3613 128.941 70.2841 128.324 71.0612 127.546L127.554 71.0532C129.123 69.4826 130.004 67.3537 130.004 65.1341C130.004 62.9146 129.123 60.7857 127.554 59.2151" fill="#C5C5C5"/>
</g>
<defs>
<clipPath id="clip0_15_217">
<rect width="130" height="130" fill="white"/>
</clipPath>
</defs>
</svg>
