<svg width="130" height="130" viewBox="0 0 130 130" fill="none" xmlns="http://www.w3.org/2000/svg">
<g clip-path="url(#clip0_14_188)">
<path d="M115.408 0.000172494H14.5917C6.88137 -0.057972 0.102324 5.97535 0 14.5922V115.408C0.102578 124.024 6.88137 130.058 14.592 130H115.408C125.38 129.857 129.827 122.326 130 115.408V14.5922C129.827 7.67398 125.38 0.142106 115.408 -8.14118e-05V0.000172494ZM43.274 78.3173H30.8758V117.898H20.9262V78.3173H8.52795V68.368H43.2738V78.3173H43.274ZM72.2219 116.198C64.2555 119.733 50.1193 118.445 45.2664 107.771L53.2612 103.152C57.2587 110.747 67.6264 110.729 69.6617 105.726C71.6495 100.842 65.6533 98.9322 58.2118 95.6322C54.9753 93.963 49.967 91.3343 48.4638 84.9112C47.3296 80.0642 48.3417 72.7397 55.9256 69.395L55.9267 69.3955C66.4457 65.5352 74.522 70.4614 76.8909 76.1469L69.2509 81.1214C68.1215 79.0831 65.7145 76.9988 62.9355 76.8497C60.4152 76.7144 58.0722 78.0322 57.9975 81.4403C58.1471 86.4068 64.6773 86.406 72.5083 91.3666C78.245 95.0007 79.3195 97.7785 79.85 102.799C80.243 106.52 79.543 112.949 72.2216 116.198H72.2219ZM111.003 117.898L101.409 100.842L91.815 117.898H82.0435L95.9014 92.4921L82.9319 68.3294L82.9324 68.3291H92.8814L101.409 84.1411L109.937 68.3291H119.709L106.917 92.4916L120.775 117.897H111.003L111.003 117.898Z" fill="#C5C5C5"/>
</g>
<defs>
<clipPath id="clip0_14_188">
<rect width="130" height="130" fill="white"/>
</clipPath>
</defs>
</svg>
