<svg width="130" height="130" viewBox="0 0 130 130" fill="none" xmlns="http://www.w3.org/2000/svg">
<path d="M34.4337 48.75C20.15 52.4333 10.8333 58.7438 10.8333 65.9479C10.8333 77.3608 34.6937 86.6667 64.1875 86.6667C68.1958 86.6667 71.0125 86.4554 74.75 86.1412" stroke="#C5C5C5" stroke-width="10.8333" stroke-linecap="round" stroke-linejoin="round"/>
<path d="M53.2837 86.125C51.0467 82.8966 48.9179 79.9879 46.8921 76.375C31.9908 49.8333 27.9987 23.4542 38.0629 17.4796C44.2921 13.7042 54.5675 18.85 65.0054 29.6887" stroke="#C5C5C5" stroke-width="10.8333" stroke-linecap="round" stroke-linejoin="round"/>
<path d="M34.8237 83.3462C31.0212 97.9062 31.7904 108.891 37.8571 112.569C47.515 118.419 67.0367 101.963 81.4233 75.7142C83.3733 72.085 85.1229 68.5154 86.6667 65" stroke="#C5C5C5" stroke-width="10.8333" stroke-linecap="round" stroke-linejoin="round"/>
<path d="M65 100.317C75.4433 111.15 85.6754 116.296 91.9642 112.52C101.985 106.551 98.0363 80.1721 83.1188 53.625C81.0388 49.9579 78.91 47.1033 76.7271 43.875" stroke="#C5C5C5" stroke-width="10.8333" stroke-linecap="round" stroke-linejoin="round"/>
<path d="M95.6583 81.2499C109.807 77.5287 119.167 71.2291 119.167 64.0466C119.167 52.6174 95.29 43.3333 65.8396 43.3333C61.7933 43.3333 58.9821 43.4903 55.25 43.8045" stroke="#C5C5C5" stroke-width="10.8333" stroke-linecap="round" stroke-linejoin="round"/>
<path d="M43.3333 64.9999C44.8771 61.4249 46.6212 57.9149 48.5767 54.2857C62.9146 28.0474 82.4471 11.5482 92.1592 17.447C98.1717 21.1249 98.995 32.1045 95.1925 46.6591M66.4083 65.0812H66.3542C66.3 65.7853 65.7042 66.3812 64.9458 66.3812C64.5831 66.3632 64.241 66.2075 63.9893 65.9457C63.7376 65.6839 63.5954 65.3359 63.5917 64.9728C63.5917 64.2145 64.1875 63.6187 64.8917 63.6187H64.8375C65.5417 63.5645 66.1917 64.2145 66.1917 64.9187" stroke="#C5C5C5" stroke-width="10.8333" stroke-linecap="round" stroke-linejoin="round"/>
</svg>
